<mxfile host="Electron" modified="2023-12-02T13:37:35.054Z" agent="Mozilla/5.0 (Windows NT 10.0; Win64; x64) AppleWebKit/537.36 (KHTML, like Gecko) draw.io/22.1.2 Chrome/114.0.5735.289 Electron/25.9.4 Safari/537.36" etag="6rnmsaFVLn9_7Bl8bR_7" version="22.1.2" type="device">
  <diagram name="第 1 页" id="bMrVAK8gPkkUIHQVz1YE">
    <mxGraphModel dx="784" dy="1022" grid="1" gridSize="10" guides="1" tooltips="1" connect="1" arrows="1" fold="1" page="1" pageScale="1" pageWidth="827" pageHeight="1169" math="0" shadow="0">
      <root>
        <mxCell id="0" />
        <mxCell id="1" parent="0" />
        <mxCell id="vLbGH18DJwOGP0xXrtU2-1" value="" style="swimlane;startSize=0;fillStyle=auto;fillColor=#000000;fontColor=#333333;strokeColor=#666666;swimlaneFillColor=#E6E6E6;" vertex="1" parent="1">
          <mxGeometry x="1304" y="392" width="1130" height="752" as="geometry" />
        </mxCell>
        <mxCell id="vLbGH18DJwOGP0xXrtU2-2" value="&lt;b&gt;战斗系统&lt;/b&gt;" style="text;html=1;align=center;verticalAlign=middle;resizable=0;points=[];autosize=1;strokeColor=none;fillColor=none;" vertex="1" parent="vLbGH18DJwOGP0xXrtU2-1">
          <mxGeometry x="6" y="1" width="68" height="28" as="geometry" />
        </mxCell>
        <mxCell id="vLbGH18DJwOGP0xXrtU2-3" value="" style="swimlane;startSize=0;fillStyle=auto;fillColor=#000000;fontColor=#333333;strokeColor=#666666;swimlaneFillColor=#E6E6E6;" vertex="1" parent="vLbGH18DJwOGP0xXrtU2-1">
          <mxGeometry x="38" y="64" width="282" height="600" as="geometry" />
        </mxCell>
        <mxCell id="vLbGH18DJwOGP0xXrtU2-4" value="&lt;b&gt;Character&lt;/b&gt;" style="text;html=1;align=center;verticalAlign=middle;resizable=0;points=[];autosize=1;strokeColor=none;fillColor=none;" vertex="1" parent="vLbGH18DJwOGP0xXrtU2-3">
          <mxGeometry width="76" height="28" as="geometry" />
        </mxCell>
        <mxCell id="vLbGH18DJwOGP0xXrtU2-5" value="E" style="ellipse;whiteSpace=wrap;html=1;aspect=fixed;fillColor=none;" vertex="1" parent="vLbGH18DJwOGP0xXrtU2-3">
          <mxGeometry x="26" y="59" width="26" height="26" as="geometry" />
        </mxCell>
        <mxCell id="vLbGH18DJwOGP0xXrtU2-6" value="" style="swimlane;startSize=0;fillStyle=auto;fillColor=#000000;fontColor=#333333;strokeColor=#666666;swimlaneFillColor=#E6E6E6;" vertex="1" parent="vLbGH18DJwOGP0xXrtU2-3">
          <mxGeometry x="82" y="28" width="142" height="74" as="geometry" />
        </mxCell>
        <mxCell id="vLbGH18DJwOGP0xXrtU2-7" value="&lt;b&gt;Combat Component&lt;/b&gt;" style="text;html=1;align=center;verticalAlign=middle;resizable=0;points=[];autosize=1;strokeColor=none;fillColor=none;" vertex="1" parent="vLbGH18DJwOGP0xXrtU2-6">
          <mxGeometry x="0.5" width="134" height="28" as="geometry" />
        </mxCell>
        <mxCell id="vLbGH18DJwOGP0xXrtU2-8" value="" style="swimlane;startSize=0;fillStyle=auto;fillColor=#000000;fontColor=#333333;strokeColor=#666666;swimlaneFillColor=#E6E6E6;" vertex="1" parent="vLbGH18DJwOGP0xXrtU2-6">
          <mxGeometry x="46.5" y="29" width="54" height="30" as="geometry" />
        </mxCell>
        <mxCell id="vLbGH18DJwOGP0xXrtU2-9" value="&lt;b&gt;Fire&lt;/b&gt;" style="text;html=1;align=center;verticalAlign=middle;resizable=0;points=[];autosize=1;strokeColor=none;fillColor=none;" vertex="1" parent="vLbGH18DJwOGP0xXrtU2-8">
          <mxGeometry width="42" height="28" as="geometry" />
        </mxCell>
        <mxCell id="vLbGH18DJwOGP0xXrtU2-10" style="edgeStyle=orthogonalEdgeStyle;rounded=0;orthogonalLoop=1;jettySize=auto;html=1;exitX=1;exitY=0.5;exitDx=0;exitDy=0;entryX=0;entryY=0.5;entryDx=0;entryDy=0;" edge="1" parent="vLbGH18DJwOGP0xXrtU2-3" source="vLbGH18DJwOGP0xXrtU2-5" target="vLbGH18DJwOGP0xXrtU2-8">
          <mxGeometry relative="1" as="geometry" />
        </mxCell>
        <mxCell id="vLbGH18DJwOGP0xXrtU2-11" value="" style="swimlane;startSize=0;fillStyle=auto;fillColor=#000000;fontColor=#333333;strokeColor=#666666;swimlaneFillColor=#E6E6E6;" vertex="1" parent="vLbGH18DJwOGP0xXrtU2-3">
          <mxGeometry x="80" y="112" width="194" height="132" as="geometry" />
        </mxCell>
        <mxCell id="vLbGH18DJwOGP0xXrtU2-12" value="&lt;b&gt;BuffComponent&lt;/b&gt;" style="text;html=1;align=center;verticalAlign=middle;resizable=0;points=[];autosize=1;strokeColor=none;fillColor=none;" vertex="1" parent="vLbGH18DJwOGP0xXrtU2-11">
          <mxGeometry x="12.5" width="110" height="28" as="geometry" />
        </mxCell>
        <mxCell id="vLbGH18DJwOGP0xXrtU2-13" value="" style="swimlane;startSize=0;fillStyle=auto;fillColor=#000000;fontColor=#333333;strokeColor=#666666;swimlaneFillColor=#E6E6E6;" vertex="1" parent="vLbGH18DJwOGP0xXrtU2-11">
          <mxGeometry x="20" y="26" width="147.5" height="92" as="geometry" />
        </mxCell>
        <mxCell id="vLbGH18DJwOGP0xXrtU2-14" value="&lt;b&gt;Health/Speed/Jump&lt;/b&gt;" style="text;html=1;align=center;verticalAlign=middle;resizable=0;points=[];autosize=1;strokeColor=none;fillColor=none;" vertex="1" parent="vLbGH18DJwOGP0xXrtU2-13">
          <mxGeometry x="2" width="130" height="28" as="geometry" />
        </mxCell>
        <mxCell id="vLbGH18DJwOGP0xXrtU2-15" value="&lt;div style=&quot;text-align: left;&quot;&gt;&lt;span style=&quot;font-size: 8px; background-color: initial;&quot;&gt;1. 根据buff修改角色属性&lt;/span&gt;&lt;/div&gt;&lt;font style=&quot;font-size: 8px;&quot;&gt;&lt;div style=&quot;text-align: left;&quot;&gt;&lt;span style=&quot;background-color: initial;&quot;&gt;2. 更新HUD&lt;/span&gt;&lt;/div&gt;&lt;div style=&quot;text-align: left;&quot;&gt;&lt;span style=&quot;background-color: initial;&quot;&gt;&lt;br&gt;&lt;/span&gt;&lt;/div&gt;&lt;/font&gt;" style="text;html=1;strokeColor=none;fillColor=none;align=center;verticalAlign=middle;whiteSpace=wrap;rounded=0;" vertex="1" parent="vLbGH18DJwOGP0xXrtU2-13">
          <mxGeometry x="13" y="30" width="101" height="22" as="geometry" />
        </mxCell>
        <mxCell id="vLbGH18DJwOGP0xXrtU2-16" style="edgeStyle=orthogonalEdgeStyle;rounded=0;orthogonalLoop=1;jettySize=auto;html=1;exitX=0.5;exitY=1;exitDx=0;exitDy=0;entryX=0.5;entryY=0;entryDx=0;entryDy=0;" edge="1" parent="vLbGH18DJwOGP0xXrtU2-3" source="vLbGH18DJwOGP0xXrtU2-17" target="vLbGH18DJwOGP0xXrtU2-18">
          <mxGeometry relative="1" as="geometry" />
        </mxCell>
        <mxCell id="vLbGH18DJwOGP0xXrtU2-17" value="&lt;font style=&quot;font-size: 10px;&quot;&gt;Delegate: OnTakeAnyDamage&lt;/font&gt;" style="rounded=0;whiteSpace=wrap;html=1;fillColor=#fff2cc;strokeColor=#d6b656;" vertex="1" parent="vLbGH18DJwOGP0xXrtU2-3">
          <mxGeometry x="12" y="256" width="142" height="16" as="geometry" />
        </mxCell>
        <mxCell id="vLbGH18DJwOGP0xXrtU2-18" value="" style="swimlane;startSize=0;fillStyle=auto;fillColor=#000000;fontColor=#333333;strokeColor=#666666;swimlaneFillColor=#E6E6E6;" vertex="1" parent="vLbGH18DJwOGP0xXrtU2-3">
          <mxGeometry x="12" y="296" width="136" height="88" as="geometry" />
        </mxCell>
        <mxCell id="vLbGH18DJwOGP0xXrtU2-19" value="&lt;b&gt;ReceiveDamage&lt;/b&gt;" style="text;html=1;align=center;verticalAlign=middle;resizable=0;points=[];autosize=1;strokeColor=none;fillColor=none;" vertex="1" parent="vLbGH18DJwOGP0xXrtU2-18">
          <mxGeometry y="2" width="112" height="28" as="geometry" />
        </mxCell>
        <mxCell id="vLbGH18DJwOGP0xXrtU2-20" value="&lt;div style=&quot;text-align: left;&quot;&gt;&lt;span style=&quot;font-size: 8px; background-color: initial;&quot;&gt;1. 根据damage值更新护盾和血量&lt;/span&gt;&lt;/div&gt;&lt;font style=&quot;font-size: 8px;&quot;&gt;&lt;div style=&quot;text-align: left;&quot;&gt;&lt;span style=&quot;background-color: initial;&quot;&gt;2. 更新HUD&lt;/span&gt;&lt;/div&gt;&lt;div style=&quot;text-align: left;&quot;&gt;&lt;span style=&quot;background-color: initial;&quot;&gt;&lt;br&gt;&lt;/span&gt;&lt;/div&gt;&lt;/font&gt;" style="text;html=1;strokeColor=none;fillColor=none;align=center;verticalAlign=middle;whiteSpace=wrap;rounded=0;" vertex="1" parent="vLbGH18DJwOGP0xXrtU2-18">
          <mxGeometry x="6" y="28" width="126" height="22" as="geometry" />
        </mxCell>
        <mxCell id="vLbGH18DJwOGP0xXrtU2-21" value="&lt;div style=&quot;border-color: var(--border-color); text-align: left;&quot;&gt;&lt;font style=&quot;font-size: 8px;&quot;&gt;血量小于等于0？&lt;/font&gt;&lt;/div&gt;&lt;font size=&quot;3&quot; style=&quot;border-color: var(--border-color);&quot;&gt;&lt;/font&gt;" style="rhombus;whiteSpace=wrap;html=1;fillColor=none;" vertex="1" parent="vLbGH18DJwOGP0xXrtU2-18">
          <mxGeometry x="32" y="44" width="72" height="38" as="geometry" />
        </mxCell>
        <mxCell id="vLbGH18DJwOGP0xXrtU2-22" value="Bind" style="text;html=1;strokeColor=none;fillColor=none;align=center;verticalAlign=middle;whiteSpace=wrap;rounded=0;" vertex="1" parent="vLbGH18DJwOGP0xXrtU2-3">
          <mxGeometry x="86" y="278" width="26" height="10" as="geometry" />
        </mxCell>
        <mxCell id="vLbGH18DJwOGP0xXrtU2-23" style="edgeStyle=orthogonalEdgeStyle;rounded=0;orthogonalLoop=1;jettySize=auto;html=1;exitX=1;exitY=0.5;exitDx=0;exitDy=0;entryX=0;entryY=0.5;entryDx=0;entryDy=0;" edge="1" parent="vLbGH18DJwOGP0xXrtU2-3" source="vLbGH18DJwOGP0xXrtU2-24" target="vLbGH18DJwOGP0xXrtU2-13">
          <mxGeometry relative="1" as="geometry" />
        </mxCell>
        <mxCell id="vLbGH18DJwOGP0xXrtU2-24" value="与Buff&lt;br&gt;Overlap" style="ellipse;whiteSpace=wrap;html=1;aspect=fixed;fillColor=none;" vertex="1" parent="vLbGH18DJwOGP0xXrtU2-3">
          <mxGeometry x="8" y="160" width="50" height="50" as="geometry" />
        </mxCell>
        <mxCell id="vLbGH18DJwOGP0xXrtU2-25" value="" style="swimlane;startSize=0;fillStyle=auto;fillColor=#000000;fontColor=#333333;strokeColor=#666666;swimlaneFillColor=#E6E6E6;" vertex="1" parent="vLbGH18DJwOGP0xXrtU2-3">
          <mxGeometry x="16" y="394" width="126" height="114" as="geometry" />
        </mxCell>
        <mxCell id="vLbGH18DJwOGP0xXrtU2-26" value="&lt;b&gt;Elim&lt;/b&gt;" style="text;html=1;align=center;verticalAlign=middle;resizable=0;points=[];autosize=1;strokeColor=none;fillColor=none;" vertex="1" parent="vLbGH18DJwOGP0xXrtU2-25">
          <mxGeometry width="44" height="28" as="geometry" />
        </mxCell>
        <mxCell id="vLbGH18DJwOGP0xXrtU2-27" value="&lt;div style=&quot;text-align: left;&quot;&gt;&lt;span style=&quot;font-size: 8px;&quot;&gt;1. 扔掉武器&lt;/span&gt;&lt;/div&gt;&lt;div style=&quot;text-align: left;&quot;&gt;&lt;span style=&quot;font-size: 8px;&quot;&gt;2. 播放死亡动画和特效&lt;/span&gt;&lt;/div&gt;&lt;div style=&quot;text-align: left;&quot;&gt;&lt;span style=&quot;font-size: 8px;&quot;&gt;3. 更新HUD的武器，子弹等等&lt;/span&gt;&lt;/div&gt;&lt;div style=&quot;text-align: left;&quot;&gt;&lt;span style=&quot;font-size: 8px;&quot;&gt;4. 关闭碰撞&lt;/span&gt;&lt;/div&gt;&lt;div style=&quot;text-align: left;&quot;&gt;&lt;span style=&quot;font-size: 8px;&quot;&gt;&lt;br&gt;&lt;/span&gt;&lt;/div&gt;" style="text;html=1;strokeColor=none;fillColor=none;align=center;verticalAlign=middle;whiteSpace=wrap;rounded=0;" vertex="1" parent="vLbGH18DJwOGP0xXrtU2-25">
          <mxGeometry x="8" y="26" width="106" height="66" as="geometry" />
        </mxCell>
        <mxCell id="vLbGH18DJwOGP0xXrtU2-28" value="&lt;div style=&quot;text-align: left;&quot;&gt;&lt;span style=&quot;font-size: 8px;&quot;&gt;都结束后重新生成角色&lt;/span&gt;&lt;/div&gt;" style="text;html=1;strokeColor=none;fillColor=none;align=center;verticalAlign=middle;whiteSpace=wrap;rounded=0;" vertex="1" parent="vLbGH18DJwOGP0xXrtU2-25">
          <mxGeometry x="8" y="88" width="92" height="22" as="geometry" />
        </mxCell>
        <mxCell id="vLbGH18DJwOGP0xXrtU2-29" value="" style="swimlane;startSize=0;fillStyle=auto;fillColor=#000000;fontColor=#333333;strokeColor=#666666;swimlaneFillColor=#E6E6E6;" vertex="1" parent="vLbGH18DJwOGP0xXrtU2-1">
          <mxGeometry x="700" y="208" width="209" height="150" as="geometry" />
        </mxCell>
        <mxCell id="vLbGH18DJwOGP0xXrtU2-30" value="&lt;b&gt;ProjectileBullet : Projectile&lt;/b&gt;" style="text;html=1;align=center;verticalAlign=middle;resizable=0;points=[];autosize=1;strokeColor=none;fillColor=none;" vertex="1" parent="vLbGH18DJwOGP0xXrtU2-29">
          <mxGeometry width="172" height="28" as="geometry" />
        </mxCell>
        <mxCell id="vLbGH18DJwOGP0xXrtU2-31" value="" style="swimlane;startSize=0;fillStyle=auto;fillColor=#000000;fontColor=#333333;strokeColor=#666666;swimlaneFillColor=#E6E6E6;" vertex="1" parent="vLbGH18DJwOGP0xXrtU2-29">
          <mxGeometry x="9" y="25" width="89" height="69" as="geometry" />
        </mxCell>
        <mxCell id="vLbGH18DJwOGP0xXrtU2-32" value="&lt;b&gt;OnHit&lt;/b&gt;" style="text;html=1;align=center;verticalAlign=middle;resizable=0;points=[];autosize=1;strokeColor=none;fillColor=none;" vertex="1" parent="vLbGH18DJwOGP0xXrtU2-31">
          <mxGeometry width="52" height="28" as="geometry" />
        </mxCell>
        <mxCell id="vLbGH18DJwOGP0xXrtU2-33" value="&lt;font style=&quot;font-size: 8px;&quot;&gt;&lt;b&gt;ApplyDamage&lt;/b&gt;&lt;/font&gt;" style="rounded=0;whiteSpace=wrap;html=1;fillColor=none;" vertex="1" parent="vLbGH18DJwOGP0xXrtU2-31">
          <mxGeometry x="14" y="28" width="58" height="14" as="geometry" />
        </mxCell>
        <mxCell id="vLbGH18DJwOGP0xXrtU2-34" value="&lt;font style=&quot;font-size: 8px;&quot;&gt;Super::OnHit()&lt;/font&gt;" style="rounded=0;whiteSpace=wrap;html=1;fillColor=none;" vertex="1" parent="vLbGH18DJwOGP0xXrtU2-31">
          <mxGeometry x="13" y="48" width="60" height="14" as="geometry" />
        </mxCell>
        <mxCell id="vLbGH18DJwOGP0xXrtU2-35" value="" style="swimlane;startSize=0;fillStyle=auto;fillColor=#000000;fontColor=#333333;strokeColor=#666666;swimlaneFillColor=#E6E6E6;" vertex="1" parent="vLbGH18DJwOGP0xXrtU2-1">
          <mxGeometry x="340" y="64" width="246" height="128" as="geometry" />
        </mxCell>
        <mxCell id="vLbGH18DJwOGP0xXrtU2-36" value="&lt;b&gt;ProjectileWeapon&lt;/b&gt;" style="text;html=1;align=center;verticalAlign=middle;resizable=0;points=[];autosize=1;strokeColor=none;fillColor=none;" vertex="1" parent="vLbGH18DJwOGP0xXrtU2-35">
          <mxGeometry width="120" height="28" as="geometry" />
        </mxCell>
        <mxCell id="vLbGH18DJwOGP0xXrtU2-37" value="" style="swimlane;startSize=0;fillStyle=auto;fillColor=#000000;fontColor=#333333;strokeColor=#666666;swimlaneFillColor=#E6E6E6;" vertex="1" parent="vLbGH18DJwOGP0xXrtU2-35">
          <mxGeometry x="18" y="32" width="110" height="80" as="geometry" />
        </mxCell>
        <mxCell id="vLbGH18DJwOGP0xXrtU2-38" value="&lt;b&gt;Fire&lt;/b&gt;" style="text;html=1;align=center;verticalAlign=middle;resizable=0;points=[];autosize=1;strokeColor=none;fillColor=none;" vertex="1" parent="vLbGH18DJwOGP0xXrtU2-37">
          <mxGeometry width="42" height="28" as="geometry" />
        </mxCell>
        <mxCell id="vLbGH18DJwOGP0xXrtU2-39" value="&lt;font style=&quot;font-size: 8px;&quot;&gt;Super::Fire()&lt;/font&gt;" style="rounded=0;whiteSpace=wrap;html=1;fillColor=none;" vertex="1" parent="vLbGH18DJwOGP0xXrtU2-37">
          <mxGeometry x="22" y="26" width="60" height="14" as="geometry" />
        </mxCell>
        <mxCell id="vLbGH18DJwOGP0xXrtU2-40" value="&lt;font style=&quot;font-size: 8px;&quot;&gt;Spawn Projectile&lt;/font&gt;" style="rounded=0;whiteSpace=wrap;html=1;fillColor=none;" vertex="1" parent="vLbGH18DJwOGP0xXrtU2-37">
          <mxGeometry x="16" y="54" width="72" height="14" as="geometry" />
        </mxCell>
        <mxCell id="vLbGH18DJwOGP0xXrtU2-41" value="&lt;font style=&quot;font-size: 8px;&quot;&gt;继承自Weapon类，override了fire函数，添加了子弹碰撞检测&lt;/font&gt;" style="text;html=1;strokeColor=none;fillColor=none;align=center;verticalAlign=middle;whiteSpace=wrap;rounded=0;" vertex="1" parent="vLbGH18DJwOGP0xXrtU2-35">
          <mxGeometry x="110" width="126" height="28" as="geometry" />
        </mxCell>
        <mxCell id="vLbGH18DJwOGP0xXrtU2-42" style="edgeStyle=orthogonalEdgeStyle;rounded=0;orthogonalLoop=1;jettySize=auto;html=1;exitX=1;exitY=0.5;exitDx=0;exitDy=0;entryX=0;entryY=0.5;entryDx=0;entryDy=0;" edge="1" parent="vLbGH18DJwOGP0xXrtU2-1" source="vLbGH18DJwOGP0xXrtU2-8" target="vLbGH18DJwOGP0xXrtU2-37">
          <mxGeometry relative="1" as="geometry" />
        </mxCell>
        <mxCell id="vLbGH18DJwOGP0xXrtU2-43" style="edgeStyle=orthogonalEdgeStyle;rounded=0;orthogonalLoop=1;jettySize=auto;html=1;exitX=0.5;exitY=1;exitDx=0;exitDy=0;entryX=0.5;entryY=0;entryDx=0;entryDy=0;" edge="1" parent="vLbGH18DJwOGP0xXrtU2-1" source="vLbGH18DJwOGP0xXrtU2-44" target="vLbGH18DJwOGP0xXrtU2-29">
          <mxGeometry relative="1" as="geometry" />
        </mxCell>
        <mxCell id="vLbGH18DJwOGP0xXrtU2-44" value="" style="swimlane;startSize=0;fillStyle=auto;fillColor=#000000;fontColor=#333333;strokeColor=#666666;swimlaneFillColor=#E6E6E6;" vertex="1" parent="vLbGH18DJwOGP0xXrtU2-1">
          <mxGeometry x="648" y="40" width="316" height="136" as="geometry" />
        </mxCell>
        <mxCell id="vLbGH18DJwOGP0xXrtU2-45" value="&lt;b&gt;Projectile&lt;/b&gt;" style="text;html=1;align=center;verticalAlign=middle;resizable=0;points=[];autosize=1;strokeColor=none;fillColor=none;" vertex="1" parent="vLbGH18DJwOGP0xXrtU2-44">
          <mxGeometry width="74" height="28" as="geometry" />
        </mxCell>
        <mxCell id="vLbGH18DJwOGP0xXrtU2-46" value="&lt;font style=&quot;font-size: 10px;&quot;&gt;Collision Box&lt;/font&gt;" style="rounded=0;whiteSpace=wrap;html=1;fillColor=#fff2cc;strokeColor=#d6b656;" vertex="1" parent="vLbGH18DJwOGP0xXrtU2-44">
          <mxGeometry x="192" y="4" width="65.5" height="16" as="geometry" />
        </mxCell>
        <mxCell id="vLbGH18DJwOGP0xXrtU2-47" value="&lt;font style=&quot;&quot;&gt;&lt;span style=&quot;font-size: 10px;&quot;&gt;ProjectileMovementComponent&lt;/span&gt;&lt;br&gt;&lt;span style=&quot;font-size: 10px;&quot;&gt;该组件负责子弹的运动&lt;/span&gt;&lt;br&gt;&lt;div style=&quot;&quot;&gt;&lt;span style=&quot;font-size: 10px;&quot;&gt;InitialSpeed;&lt;/span&gt;&lt;/div&gt;&lt;div style=&quot;&quot;&gt;&lt;span style=&quot;font-size: 10px;&quot;&gt;MaxSpeed;&lt;/span&gt;&lt;/div&gt;&lt;/font&gt;" style="rounded=0;whiteSpace=wrap;html=1;fillColor=#fff2cc;strokeColor=#d6b656;align=left;" vertex="1" parent="vLbGH18DJwOGP0xXrtU2-44">
          <mxGeometry x="158" y="52" width="146" height="64" as="geometry" />
        </mxCell>
        <mxCell id="vLbGH18DJwOGP0xXrtU2-48" value="&lt;font style=&quot;font-size: 10px;&quot;&gt;ParticleSystem和SoundCue等&lt;/font&gt;" style="rounded=0;whiteSpace=wrap;html=1;fillColor=#fff2cc;strokeColor=#d6b656;" vertex="1" parent="vLbGH18DJwOGP0xXrtU2-44">
          <mxGeometry x="158" y="26" width="142" height="16" as="geometry" />
        </mxCell>
        <mxCell id="vLbGH18DJwOGP0xXrtU2-49" value="" style="swimlane;startSize=0;fillStyle=auto;fillColor=#000000;fontColor=#333333;strokeColor=#666666;swimlaneFillColor=#E6E6E6;" vertex="1" parent="vLbGH18DJwOGP0xXrtU2-44">
          <mxGeometry x="6" y="33" width="146" height="70" as="geometry" />
        </mxCell>
        <mxCell id="vLbGH18DJwOGP0xXrtU2-50" value="&lt;b&gt;OnHit&lt;/b&gt;" style="text;html=1;align=center;verticalAlign=middle;resizable=0;points=[];autosize=1;strokeColor=none;fillColor=none;" vertex="1" parent="vLbGH18DJwOGP0xXrtU2-49">
          <mxGeometry width="52" height="28" as="geometry" />
        </mxCell>
        <mxCell id="vLbGH18DJwOGP0xXrtU2-51" value="&lt;font style=&quot;font-size: 8px;&quot;&gt;Destroy&lt;/font&gt;" style="rounded=0;whiteSpace=wrap;html=1;fillColor=none;" vertex="1" parent="vLbGH18DJwOGP0xXrtU2-49">
          <mxGeometry x="14" y="28" width="36" height="14" as="geometry" />
        </mxCell>
        <mxCell id="vLbGH18DJwOGP0xXrtU2-52" value="&lt;font style=&quot;font-size: 8px;&quot;&gt;Destroyed(播放命中特效于声音)&lt;/font&gt;" style="rounded=0;whiteSpace=wrap;html=1;fillColor=none;" vertex="1" parent="vLbGH18DJwOGP0xXrtU2-49">
          <mxGeometry x="14" y="48" width="118" height="14" as="geometry" />
        </mxCell>
        <mxCell id="vLbGH18DJwOGP0xXrtU2-53" style="edgeStyle=orthogonalEdgeStyle;rounded=0;orthogonalLoop=1;jettySize=auto;html=1;exitX=1;exitY=0.5;exitDx=0;exitDy=0;entryX=0;entryY=0.75;entryDx=0;entryDy=0;" edge="1" parent="vLbGH18DJwOGP0xXrtU2-1" source="vLbGH18DJwOGP0xXrtU2-40" target="vLbGH18DJwOGP0xXrtU2-29">
          <mxGeometry relative="1" as="geometry" />
        </mxCell>
        <mxCell id="vLbGH18DJwOGP0xXrtU2-54" style="edgeStyle=orthogonalEdgeStyle;rounded=0;orthogonalLoop=1;jettySize=auto;html=1;exitX=0;exitY=0.5;exitDx=0;exitDy=0;entryX=0;entryY=0.5;entryDx=0;entryDy=0;" edge="1" parent="vLbGH18DJwOGP0xXrtU2-1" source="vLbGH18DJwOGP0xXrtU2-34" target="vLbGH18DJwOGP0xXrtU2-52">
          <mxGeometry relative="1" as="geometry">
            <Array as="points">
              <mxPoint x="632" y="288" />
              <mxPoint x="632" y="128" />
            </Array>
          </mxGeometry>
        </mxCell>
        <mxCell id="vLbGH18DJwOGP0xXrtU2-55" value="&lt;div style=&quot;text-align: left;&quot;&gt;&lt;br&gt;&lt;/div&gt;" style="text;html=1;strokeColor=none;fillColor=none;align=center;verticalAlign=middle;whiteSpace=wrap;rounded=0;" vertex="1" parent="vLbGH18DJwOGP0xXrtU2-1">
          <mxGeometry x="338" y="366" width="66" height="12" as="geometry" />
        </mxCell>
        <mxCell id="vLbGH18DJwOGP0xXrtU2-56" value="" style="swimlane;startSize=0;fillStyle=auto;fillColor=#000000;fontColor=#333333;strokeColor=#666666;swimlaneFillColor=#E6E6E6;" vertex="1" parent="vLbGH18DJwOGP0xXrtU2-1">
          <mxGeometry x="416" y="386" width="204" height="292" as="geometry" />
        </mxCell>
        <mxCell id="vLbGH18DJwOGP0xXrtU2-57" value="&lt;b&gt;GameMode&lt;/b&gt;" style="text;html=1;align=center;verticalAlign=middle;resizable=0;points=[];autosize=1;strokeColor=none;fillColor=none;" vertex="1" parent="vLbGH18DJwOGP0xXrtU2-56">
          <mxGeometry x="-4" width="84" height="28" as="geometry" />
        </mxCell>
        <mxCell id="vLbGH18DJwOGP0xXrtU2-58" value="" style="swimlane;startSize=0;fillStyle=auto;fillColor=#000000;fontColor=#333333;strokeColor=#666666;swimlaneFillColor=#E6E6E6;" vertex="1" parent="vLbGH18DJwOGP0xXrtU2-56">
          <mxGeometry x="8" y="46" width="178" height="136" as="geometry" />
        </mxCell>
        <mxCell id="vLbGH18DJwOGP0xXrtU2-59" value="&lt;b&gt;PlayerEliminated&lt;/b&gt;" style="text;html=1;align=center;verticalAlign=middle;resizable=0;points=[];autosize=1;strokeColor=none;fillColor=none;" vertex="1" parent="vLbGH18DJwOGP0xXrtU2-58">
          <mxGeometry width="116" height="28" as="geometry" />
        </mxCell>
        <mxCell id="vLbGH18DJwOGP0xXrtU2-60" value="&lt;font style=&quot;font-size: 8px;&quot;&gt;攻击者PlayerState加1分&lt;/font&gt;" style="rounded=0;whiteSpace=wrap;html=1;fillColor=none;" vertex="1" parent="vLbGH18DJwOGP0xXrtU2-58">
          <mxGeometry x="10" y="28" width="90" height="14" as="geometry" />
        </mxCell>
        <mxCell id="vLbGH18DJwOGP0xXrtU2-61" value="&lt;font style=&quot;font-size: 8px;&quot;&gt;淘汰者PlayerState减1分&lt;/font&gt;" style="rounded=0;whiteSpace=wrap;html=1;fillColor=none;" vertex="1" parent="vLbGH18DJwOGP0xXrtU2-58">
          <mxGeometry x="10" y="50" width="90" height="14" as="geometry" />
        </mxCell>
        <mxCell id="vLbGH18DJwOGP0xXrtU2-62" value="&lt;span style=&quot;font-size: 8px;&quot;&gt;更新最高得分者&lt;/span&gt;" style="rounded=0;whiteSpace=wrap;html=1;fillColor=none;" vertex="1" parent="vLbGH18DJwOGP0xXrtU2-58">
          <mxGeometry x="27" y="72" width="62" height="14" as="geometry" />
        </mxCell>
        <mxCell id="vLbGH18DJwOGP0xXrtU2-63" value="&lt;span style=&quot;font-size: 8px;&quot;&gt;Elim&lt;/span&gt;" style="rounded=0;whiteSpace=wrap;html=1;fillColor=none;" vertex="1" parent="vLbGH18DJwOGP0xXrtU2-58">
          <mxGeometry x="44.5" y="94" width="27" height="14" as="geometry" />
        </mxCell>
        <mxCell id="vLbGH18DJwOGP0xXrtU2-64" value="" style="swimlane;startSize=0;fillStyle=auto;fillColor=#000000;fontColor=#333333;strokeColor=#666666;swimlaneFillColor=#E6E6E6;" vertex="1" parent="vLbGH18DJwOGP0xXrtU2-56">
          <mxGeometry x="8" y="192" width="166" height="70" as="geometry" />
        </mxCell>
        <mxCell id="vLbGH18DJwOGP0xXrtU2-65" value="&lt;b&gt;RquestRespawn&lt;/b&gt;" style="text;html=1;align=center;verticalAlign=middle;resizable=0;points=[];autosize=1;strokeColor=none;fillColor=none;" vertex="1" parent="vLbGH18DJwOGP0xXrtU2-64">
          <mxGeometry x="2" width="112" height="28" as="geometry" />
        </mxCell>
        <mxCell id="vLbGH18DJwOGP0xXrtU2-66" value="&lt;font style=&quot;font-size: 8px;&quot;&gt;Destroy角色&lt;/font&gt;" style="rounded=0;whiteSpace=wrap;html=1;fillColor=none;" vertex="1" parent="vLbGH18DJwOGP0xXrtU2-64">
          <mxGeometry x="10" y="28" width="90" height="14" as="geometry" />
        </mxCell>
        <mxCell id="vLbGH18DJwOGP0xXrtU2-67" value="&lt;font style=&quot;font-size: 8px;&quot;&gt;随机旋转一个起始点生成角色&lt;/font&gt;" style="rounded=0;whiteSpace=wrap;html=1;fillColor=none;" vertex="1" parent="vLbGH18DJwOGP0xXrtU2-64">
          <mxGeometry x="10" y="50" width="110" height="14" as="geometry" />
        </mxCell>
        <mxCell id="vLbGH18DJwOGP0xXrtU2-68" style="edgeStyle=orthogonalEdgeStyle;rounded=0;orthogonalLoop=1;jettySize=auto;html=1;exitX=1;exitY=0.5;exitDx=0;exitDy=0;entryX=0;entryY=0.5;entryDx=0;entryDy=0;" edge="1" parent="vLbGH18DJwOGP0xXrtU2-1" source="vLbGH18DJwOGP0xXrtU2-21" target="vLbGH18DJwOGP0xXrtU2-58">
          <mxGeometry relative="1" as="geometry" />
        </mxCell>
        <mxCell id="vLbGH18DJwOGP0xXrtU2-69" value="" style="swimlane;startSize=0;fillStyle=auto;fillColor=#000000;fontColor=#333333;strokeColor=#666666;swimlaneFillColor=#E6E6E6;" vertex="1" parent="vLbGH18DJwOGP0xXrtU2-1">
          <mxGeometry x="660" y="552" width="212" height="130" as="geometry" />
        </mxCell>
        <mxCell id="vLbGH18DJwOGP0xXrtU2-70" value="&lt;b&gt;GameState&lt;/b&gt;" style="text;html=1;align=center;verticalAlign=middle;resizable=0;points=[];autosize=1;strokeColor=none;fillColor=none;" vertex="1" parent="vLbGH18DJwOGP0xXrtU2-69">
          <mxGeometry width="82" height="28" as="geometry" />
        </mxCell>
        <mxCell id="vLbGH18DJwOGP0xXrtU2-71" value="" style="swimlane;startSize=0;fillStyle=auto;fillColor=#000000;fontColor=#333333;strokeColor=#666666;swimlaneFillColor=#E6E6E6;" vertex="1" parent="vLbGH18DJwOGP0xXrtU2-69">
          <mxGeometry x="8" y="46" width="178" height="56" as="geometry" />
        </mxCell>
        <mxCell id="vLbGH18DJwOGP0xXrtU2-72" value="&lt;b&gt;更新最高得分者&lt;/b&gt;" style="text;html=1;align=center;verticalAlign=middle;resizable=0;points=[];autosize=1;strokeColor=none;fillColor=none;" vertex="1" parent="vLbGH18DJwOGP0xXrtU2-71">
          <mxGeometry width="104" height="28" as="geometry" />
        </mxCell>
        <mxCell id="vLbGH18DJwOGP0xXrtU2-73" style="edgeStyle=orthogonalEdgeStyle;rounded=0;orthogonalLoop=1;jettySize=auto;html=1;exitX=1;exitY=0.5;exitDx=0;exitDy=0;entryX=0;entryY=0.5;entryDx=0;entryDy=0;" edge="1" parent="vLbGH18DJwOGP0xXrtU2-69" source="vLbGH18DJwOGP0xXrtU2-74" target="vLbGH18DJwOGP0xXrtU2-75">
          <mxGeometry relative="1" as="geometry" />
        </mxCell>
        <mxCell id="vLbGH18DJwOGP0xXrtU2-74" value="&lt;font style=&quot;font-size: 10px;&quot;&gt;Replicated&lt;/font&gt;" style="rounded=0;whiteSpace=wrap;html=1;fillColor=#6a00ff;strokeColor=#3700CC;fontColor=#ffffff;" vertex="1" parent="vLbGH18DJwOGP0xXrtU2-69">
          <mxGeometry x="14" y="110" width="52.5" height="16" as="geometry" />
        </mxCell>
        <mxCell id="vLbGH18DJwOGP0xXrtU2-75" value="&lt;span style=&quot;font-size: 10px;&quot;&gt;TArray TopScorePlayers&lt;/span&gt;" style="rounded=0;whiteSpace=wrap;html=1;fillColor=#fff2cc;strokeColor=#d6b656;" vertex="1" parent="vLbGH18DJwOGP0xXrtU2-69">
          <mxGeometry x="84" y="110" width="118" height="16" as="geometry" />
        </mxCell>
        <mxCell id="vLbGH18DJwOGP0xXrtU2-76" value="" style="swimlane;startSize=0;fillStyle=auto;fillColor=#000000;fontColor=#333333;strokeColor=#666666;swimlaneFillColor=#E6E6E6;" vertex="1" parent="vLbGH18DJwOGP0xXrtU2-1">
          <mxGeometry x="660" y="386" width="204" height="158" as="geometry" />
        </mxCell>
        <mxCell id="vLbGH18DJwOGP0xXrtU2-77" value="&lt;b&gt;PlayerState&lt;/b&gt;" style="text;html=1;align=center;verticalAlign=middle;resizable=0;points=[];autosize=1;strokeColor=none;fillColor=none;" vertex="1" parent="vLbGH18DJwOGP0xXrtU2-76">
          <mxGeometry x="-1" width="84" height="28" as="geometry" />
        </mxCell>
        <mxCell id="vLbGH18DJwOGP0xXrtU2-78" value="" style="swimlane;startSize=0;fillStyle=auto;fillColor=#000000;fontColor=#333333;strokeColor=#666666;swimlaneFillColor=#E6E6E6;" vertex="1" parent="vLbGH18DJwOGP0xXrtU2-76">
          <mxGeometry x="10" y="38" width="124" height="60" as="geometry" />
        </mxCell>
        <mxCell id="vLbGH18DJwOGP0xXrtU2-79" value="&lt;b&gt;更新得分&lt;/b&gt;" style="text;html=1;align=center;verticalAlign=middle;resizable=0;points=[];autosize=1;strokeColor=none;fillColor=none;" vertex="1" parent="vLbGH18DJwOGP0xXrtU2-78">
          <mxGeometry x="24" width="68" height="28" as="geometry" />
        </mxCell>
        <mxCell id="vLbGH18DJwOGP0xXrtU2-80" value="&lt;font style=&quot;font-size: 8px;&quot;&gt;更新HUD&lt;/font&gt;" style="rounded=0;whiteSpace=wrap;html=1;fillColor=none;" vertex="1" parent="vLbGH18DJwOGP0xXrtU2-78">
          <mxGeometry x="12" y="34" width="90" height="14" as="geometry" />
        </mxCell>
        <mxCell id="vLbGH18DJwOGP0xXrtU2-81" style="edgeStyle=orthogonalEdgeStyle;rounded=0;orthogonalLoop=1;jettySize=auto;html=1;exitX=1;exitY=0.5;exitDx=0;exitDy=0;entryX=0;entryY=0.5;entryDx=0;entryDy=0;" edge="1" parent="vLbGH18DJwOGP0xXrtU2-76" source="vLbGH18DJwOGP0xXrtU2-83" target="vLbGH18DJwOGP0xXrtU2-84">
          <mxGeometry relative="1" as="geometry" />
        </mxCell>
        <mxCell id="vLbGH18DJwOGP0xXrtU2-82" style="edgeStyle=orthogonalEdgeStyle;rounded=0;orthogonalLoop=1;jettySize=auto;html=1;exitX=1;exitY=0.5;exitDx=0;exitDy=0;" edge="1" parent="vLbGH18DJwOGP0xXrtU2-76" source="vLbGH18DJwOGP0xXrtU2-83" target="vLbGH18DJwOGP0xXrtU2-85">
          <mxGeometry relative="1" as="geometry" />
        </mxCell>
        <mxCell id="vLbGH18DJwOGP0xXrtU2-83" value="&lt;font style=&quot;font-size: 10px;&quot;&gt;Replicated&lt;/font&gt;" style="rounded=0;whiteSpace=wrap;html=1;fillColor=#6a00ff;strokeColor=#3700CC;fontColor=#ffffff;" vertex="1" parent="vLbGH18DJwOGP0xXrtU2-76">
          <mxGeometry x="10" y="124" width="52.5" height="16" as="geometry" />
        </mxCell>
        <mxCell id="vLbGH18DJwOGP0xXrtU2-84" value="&lt;span style=&quot;font-size: 10px;&quot;&gt;Score&lt;/span&gt;" style="rounded=0;whiteSpace=wrap;html=1;fillColor=#fff2cc;strokeColor=#d6b656;" vertex="1" parent="vLbGH18DJwOGP0xXrtU2-76">
          <mxGeometry x="102" y="108" width="35" height="16" as="geometry" />
        </mxCell>
        <mxCell id="vLbGH18DJwOGP0xXrtU2-85" value="&lt;span style=&quot;font-size: 10px;&quot;&gt;Defeats&lt;/span&gt;" style="rounded=0;whiteSpace=wrap;html=1;fillColor=#fff2cc;strokeColor=#d6b656;" vertex="1" parent="vLbGH18DJwOGP0xXrtU2-76">
          <mxGeometry x="99.75" y="136" width="39.5" height="16" as="geometry" />
        </mxCell>
        <mxCell id="vLbGH18DJwOGP0xXrtU2-86" value="" style="swimlane;startSize=0;fillStyle=auto;fillColor=#000000;fontColor=#333333;strokeColor=#666666;swimlaneFillColor=#E6E6E6;" vertex="1" parent="vLbGH18DJwOGP0xXrtU2-1">
          <mxGeometry x="914" y="396" width="128" height="126" as="geometry" />
        </mxCell>
        <mxCell id="vLbGH18DJwOGP0xXrtU2-87" value="&lt;b&gt;PlayerController&lt;/b&gt;" style="text;html=1;align=center;verticalAlign=middle;resizable=0;points=[];autosize=1;strokeColor=none;fillColor=none;" vertex="1" parent="vLbGH18DJwOGP0xXrtU2-86">
          <mxGeometry width="112" height="28" as="geometry" />
        </mxCell>
        <mxCell id="vLbGH18DJwOGP0xXrtU2-88" value="" style="swimlane;startSize=0;fillStyle=auto;fillColor=#000000;fontColor=#333333;strokeColor=#666666;swimlaneFillColor=#E6E6E6;" vertex="1" parent="vLbGH18DJwOGP0xXrtU2-86">
          <mxGeometry x="8" y="46" width="78" height="46" as="geometry" />
        </mxCell>
        <mxCell id="vLbGH18DJwOGP0xXrtU2-89" value="&lt;b&gt;SetHUD&lt;/b&gt;" style="text;html=1;align=center;verticalAlign=middle;resizable=0;points=[];autosize=1;strokeColor=none;fillColor=none;" vertex="1" parent="vLbGH18DJwOGP0xXrtU2-88">
          <mxGeometry width="64" height="28" as="geometry" />
        </mxCell>
        <mxCell id="vLbGH18DJwOGP0xXrtU2-90" style="edgeStyle=orthogonalEdgeStyle;rounded=0;orthogonalLoop=1;jettySize=auto;html=1;exitX=1;exitY=0.5;exitDx=0;exitDy=0;entryX=0;entryY=0.5;entryDx=0;entryDy=0;" edge="1" parent="vLbGH18DJwOGP0xXrtU2-1" source="vLbGH18DJwOGP0xXrtU2-80" target="vLbGH18DJwOGP0xXrtU2-88">
          <mxGeometry relative="1" as="geometry" />
        </mxCell>
        <mxCell id="vLbGH18DJwOGP0xXrtU2-91" style="edgeStyle=orthogonalEdgeStyle;rounded=0;orthogonalLoop=1;jettySize=auto;html=1;exitX=1;exitY=0.5;exitDx=0;exitDy=0;entryX=0;entryY=0.5;entryDx=0;entryDy=0;" edge="1" parent="vLbGH18DJwOGP0xXrtU2-1" source="vLbGH18DJwOGP0xXrtU2-62" target="vLbGH18DJwOGP0xXrtU2-71">
          <mxGeometry relative="1" as="geometry" />
        </mxCell>
        <mxCell id="vLbGH18DJwOGP0xXrtU2-92" style="edgeStyle=orthogonalEdgeStyle;rounded=0;orthogonalLoop=1;jettySize=auto;html=1;exitX=1;exitY=0.5;exitDx=0;exitDy=0;entryX=0;entryY=0.25;entryDx=0;entryDy=0;" edge="1" parent="vLbGH18DJwOGP0xXrtU2-1" source="vLbGH18DJwOGP0xXrtU2-60" target="vLbGH18DJwOGP0xXrtU2-78">
          <mxGeometry relative="1" as="geometry">
            <Array as="points">
              <mxPoint x="632" y="467" />
              <mxPoint x="632" y="439" />
            </Array>
          </mxGeometry>
        </mxCell>
        <mxCell id="vLbGH18DJwOGP0xXrtU2-93" style="edgeStyle=orthogonalEdgeStyle;rounded=0;orthogonalLoop=1;jettySize=auto;html=1;exitX=1;exitY=0.5;exitDx=0;exitDy=0;entryX=0;entryY=0.5;entryDx=0;entryDy=0;" edge="1" parent="vLbGH18DJwOGP0xXrtU2-1" source="vLbGH18DJwOGP0xXrtU2-61" target="vLbGH18DJwOGP0xXrtU2-78">
          <mxGeometry relative="1" as="geometry">
            <Array as="points">
              <mxPoint x="642" y="489" />
              <mxPoint x="642" y="454" />
            </Array>
          </mxGeometry>
        </mxCell>
        <mxCell id="vLbGH18DJwOGP0xXrtU2-94" style="edgeStyle=orthogonalEdgeStyle;rounded=0;orthogonalLoop=1;jettySize=auto;html=1;exitX=1;exitY=0.5;exitDx=0;exitDy=0;entryX=0;entryY=0.5;entryDx=0;entryDy=0;" edge="1" parent="vLbGH18DJwOGP0xXrtU2-1" source="vLbGH18DJwOGP0xXrtU2-28" target="vLbGH18DJwOGP0xXrtU2-64">
          <mxGeometry relative="1" as="geometry" />
        </mxCell>
        <mxCell id="vLbGH18DJwOGP0xXrtU2-95" style="edgeStyle=orthogonalEdgeStyle;rounded=0;orthogonalLoop=1;jettySize=auto;html=1;exitX=0;exitY=0.5;exitDx=0;exitDy=0;entryX=1;entryY=0.5;entryDx=0;entryDy=0;" edge="1" parent="vLbGH18DJwOGP0xXrtU2-1" source="vLbGH18DJwOGP0xXrtU2-63" target="vLbGH18DJwOGP0xXrtU2-25">
          <mxGeometry relative="1" as="geometry">
            <Array as="points">
              <mxPoint x="236" y="533" />
              <mxPoint x="236" y="513" />
            </Array>
          </mxGeometry>
        </mxCell>
      </root>
    </mxGraphModel>
  </diagram>
</mxfile>
